<svg width="14" height="17" viewBox="0 0 14 17" fill="none" xmlns="http://www.w3.org/2000/svg">
<path fill-rule="evenodd" clip-rule="evenodd" d="M3.75795 10.6727C3.75795 10.3334 4.03301 10.0583 4.37231 10.0583H9.2872C9.62651 10.0583 9.90156 10.3334 9.90156 10.6727C9.90156 11.012 9.62651 11.287 9.2872 11.287H4.37231C4.03301 11.287 3.75795 11.012 3.75795 10.6727Z" fill="black"/>
<path fill-rule="evenodd" clip-rule="evenodd" d="M3.75795 8.21522C3.75795 7.87592 4.03301 7.60086 4.37231 7.60086H9.2872C9.62651 7.60086 9.90156 7.87592 9.90156 8.21522C9.90156 8.55452 9.62651 8.82958 9.2872 8.82958H4.37231C4.03301 8.82958 3.75795 8.55452 3.75795 8.21522Z" fill="black"/>
<path fill-rule="evenodd" clip-rule="evenodd" d="M0.431662 1.81712C0.662092 1.58669 0.974623 1.45724 1.3005 1.45724H4.37231C4.71161 1.45724 4.98667 1.7323 4.98667 2.0716C4.98667 2.4109 4.71161 2.68596 4.37231 2.68596H1.3005L1.3005 15.5876H12.359V2.68596H9.2872C8.9479 2.68596 8.67284 2.4109 8.67284 2.0716C8.67284 1.7323 8.9479 1.45724 9.2872 1.45724H12.359C12.6849 1.45724 12.9974 1.58669 13.2279 1.81712C13.4583 2.04755 13.5877 2.36009 13.5877 2.68596V15.5876C13.5877 15.9134 13.4583 16.226 13.2279 16.4564C12.9974 16.6868 12.6849 16.8163 12.359 16.8163H1.3005C0.974624 16.8163 0.662093 16.6868 0.431662 16.4564C0.201232 16.226 0.0717773 15.9134 0.0717773 15.5876V2.68596C0.0717773 2.36008 0.201232 2.04755 0.431662 1.81712Z" fill="black"/>
<path fill-rule="evenodd" clip-rule="evenodd" d="M6.82976 1.45724C6.178 1.45724 5.55294 1.71615 5.09208 2.17701C4.63122 2.63787 4.37231 3.26293 4.37231 3.91469H9.2872C9.2872 3.26293 9.02829 2.63787 8.56743 2.17701C8.10657 1.71615 7.48151 1.45724 6.82976 1.45724ZM4.22324 1.30817C4.91453 0.616879 5.85212 0.228516 6.82976 0.228516C7.80739 0.228516 8.74498 0.616879 9.43627 1.30817C10.1276 1.99946 10.5159 2.93705 10.5159 3.91469V4.52905C10.5159 4.86835 10.2409 5.14341 9.90156 5.14341H3.75795C3.41864 5.14341 3.14359 4.86835 3.14359 4.52905V3.91469C3.14359 2.93705 3.53195 1.99946 4.22324 1.30817Z" fill="black"/>
</svg>
