<svg width="16" height="16" viewBox="0 0 16 16" fill="none" xmlns="http://www.w3.org/2000/svg">
<path fill-rule="evenodd" clip-rule="evenodd" d="M4.16992 6.01313C4.40984 5.7732 4.79883 5.7732 5.03876 6.01313L7.82974 8.80411L10.6207 6.01313C10.8606 5.7732 11.2496 5.7732 11.4896 6.01313C11.7295 6.25305 11.7295 6.64204 11.4896 6.88197L8.26416 10.1074C8.02423 10.3473 7.63524 10.3473 7.39532 10.1074L4.16992 6.88197C3.93 6.64204 3.93 6.25305 4.16992 6.01313Z" fill="#FCF9FC"/>
<path fill-rule="evenodd" clip-rule="evenodd" d="M7.82974 0.45752C8.16904 0.45752 8.4441 0.732579 8.4441 1.07188V9.67295C8.4441 10.0122 8.16904 10.2873 7.82974 10.2873C7.49044 10.2873 7.21538 10.0122 7.21538 9.67295V1.07188C7.21538 0.732579 7.49044 0.45752 7.82974 0.45752Z" fill="#FCF9FC"/>
<path fill-rule="evenodd" clip-rule="evenodd" d="M1.07176 9.05858C1.41106 9.05858 1.68612 9.33364 1.68612 9.67295V13.9735H13.9734V9.67295C13.9734 9.33364 14.2484 9.05858 14.5877 9.05858C14.927 9.05858 15.2021 9.33364 15.2021 9.67295V13.9735C15.2021 14.2994 15.0726 14.6119 14.8422 14.8423C14.6118 15.0727 14.2992 15.2022 13.9734 15.2022H1.68612C1.36024 15.2022 1.04771 15.0727 0.817282 14.8423C0.586852 14.6119 0.457397 14.2994 0.457397 13.9735V9.67295C0.457397 9.33364 0.732457 9.05858 1.07176 9.05858Z" fill="#FCF9FC"/>
</svg>
